<svg xmlns="http://www.w3.org/2000/svg" viewBox="0 0 583.501 614.976" height="655.974" width="622.401"><path d="M400.688 298.714c-.403-.055-.458.251-.465.755l-5.25 2.37c-.352-.212-.98.05-2.105.71-1.387.813-4.51 3.448-6.94 5.855-4.28 4.238-4.41 4.643-4.169 12.79.38 12.773.878 14.984 3.473 15.408 1.28.21 3.594 2.406 5.142 4.881 3.23 5.169 7.517 6.667 15.38 5.375 7.827-1.287 8.61 1.382 6.073 20.681-3.091 23.514-2.243 33.711 3.39 40.736 2.809 3.503 3.574 10.517 1.43 13.113-1.52 1.842-3.572 2.232-10.257 1.953-6.83-.284-9.483.248-14.508 2.905-7.79 4.12-15.298 11.52-18.362 18.102-1.31 2.814-3.198 5.461-4.196 5.881-2.205.928-15.99-2.13-16.904-3.749-.358-.635-1.184-.797-1.834-.356-1.624 1.1 1.104 4.533 3.61 4.542 1.08.004 7.126 1.862 13.433 4.13 6.306 2.266 14.454 4.25 18.105 4.41 3.651.16 7.07.388 7.6.504.53.116-.692 2.846-2.715 6.07-2.024 3.223-3.678 6.516-3.678 7.317 0 .801-.815 1.8-1.81 2.22-.996.418-1.811 1.401-1.811 2.186 0 .784-2.015 4.738-4.477 8.787-5.142 8.457-15.645 17.627-22.681 19.803-11.985 3.707-31.016 3.76-28.94.08.394-.7 3.4-1.273 6.68-1.273s5.965-.596 5.965-1.323c0-.755-3.594-1.323-8.365-1.323-5.824 0-8.911-.603-10.172-1.985-2.093-2.293-5.604-2.647-5.604-.566 0 .78-.815.523-1.81-.568-.996-1.092-1.811-2.62-1.811-3.4 0-.78-.784-1.42-1.742-1.42s-2.452-1.08-3.32-2.402c-.867-1.322-3.342-3.536-5.5-4.917-2.157-1.382-3.923-2.882-3.923-3.336 0-1.617-6.043-3.81-8.133-2.95-1.864.765-1.923.596-.471-1.36.91-1.228 2.178-2.233 2.814-2.233.637 0 3.422-2.02 6.189-4.49 10.816-9.656 28.018-18.671 39.021-20.452 4.574-.74 5.767-1.436 5.493-3.196-.242-1.553.225-2.005 1.509-1.465 1.022.43 1.86 1.314 1.86 1.963 0 .65.451 1.181 1.004 1.181.553 0 1.007-.836 1.007-1.86s-2.626-3.21-5.835-4.858c-3.209-1.647-5.832-3.397-5.832-3.889 0-.906 2.863-8.037 4.88-12.152.676-1.38.662-2.553-.036-3.026-.626-.424-2.525 2.227-4.22 5.892-1.694 3.665-3.75 6.644-4.569 6.62-.818-.024-3.66-1.785-6.315-3.912-2.656-2.128-7.137-5.1-9.958-6.605-2.822-1.504-5.13-3.614-5.13-4.687 0-2.22 1.897-2.614 3.017-.628 1.552 2.751 4.071 1.132 6.637-4.263 2.824-5.94 13.016-17.238 14.588-16.173.515.35 1.278.03 1.695-.71.417-.74.117-1.344-.667-1.344-1.077 0-1.086-.448-.04-1.83.761-1.005 3.678-1.857 6.483-1.894 4.848-.062 4.982.037 2.687 2.008-2.414 2.073-2.414 2.07 0 1.1 1.328-.532 4.587-1.303 7.243-1.712 5.485-.846 7.684-3.28 6.921-7.656-.364-2.086.256-3.47 2.011-4.499 1.394-.818 2.534-2.358 2.534-3.424 0-1.065.544-1.938 1.207-1.938.664 0 1.207.558 1.207 1.24 0 .683 1.494 1.13 3.32.993 2.919-.219 3.364.27 3.696 4.052.213 2.415-.184 4.3-.905 4.3-.706 0-1.312-.745-1.346-1.655-.034-.91-.884.52-1.89 3.176-1.007 2.657-2.824 5.115-4.037 5.462-1.268.364-2.556 2.387-3.032 4.763-.948 4.733-2.998 5.319-5.184 1.483-1.646-2.89-9.02-3.68-12.348-1.323-1.411 1-1.078 1.286 1.509 1.302 4.54.028 4.167 1.8-.793 3.765-3.43 1.36-6.498 4.984-5.273 6.232.181.185 3.581-.227 7.553-.917 5.008-.87 7.355-.822 7.653.158 1.136 3.736 3.763 5.122 6.768 3.568 2.666-1.38 2.901-2.115 2.27-7.16-.674-5.393.759-7.64 2.69-4.214.437.775 2.922-3.119 5.519-8.651 4.29-9.136 4.575-10.365 3.124-13.4-2.154-4.505-11.129-9.996-23.189-14.186-4.837-1.68-7.98-1.868-15.691-.933-5.304.643-11.543 1.817-13.867 2.607-4.777 1.626-11.436 7.993-17.57 16.8-3.702 5.316-4.157 6.867-4.157 14.148 0 4.496.483 10.026 1.075 12.289 1.914 7.313-.314 8.45-16.62 8.472-3.565.005-5.768-.717-6.77-2.22-.818-1.224-4.142-3.097-7.389-4.162-7.711-2.529-28.14-3.323-30.49-1.186-.955.87-1.924 1.43-2.154 1.248-1.427-1.13-4.34.119-6.948 2.977-1.66 1.819-3.328 3.307-3.706 3.307-.378 0-3.45-2.083-6.827-4.63-5.672-4.277-12.618-6.024-18.544-4.667-.664.152-3.407.485-6.094.742-5.848.558-14.74 3.735-22.533 8.049-3.695 2.045-7.775 3.152-11.622 3.152-9.455 0-17.657 5.036-15.225 9.349.364.645.035 3.717-.73 6.826-1.73 7.02-2.225 20.746-.86 23.845.534 1.209.556 1.928.065 2.214 1.497 1.214 3.81 10.28-16.383 15.385-1.19.254-3.906 1.051-6.035 1.772-5.684 1.925-16.407 4.017-22.276 4.344-2.821.157-5.136.614-5.14 1.018-.003.403-2.456.808-5.452.899-2.996.09-7.745.818-10.555 1.615-8.13 2.305-30.87 6.898-37.587 7.591-3.38.35-9.946 1.322-14.593 2.16-4.647.84-10.486 1.565-12.976 1.613-2.49.047-4.526.453-4.526.904s-2.309 1.158-5.13 1.569c-2.822.41-6.488 1.063-8.148 1.452-2.846.666-21.3 2.287-29.874 2.622-2.157.085-3.923.48-3.923.882 0 .4-4.21 1.497-9.354 2.434-9.651 1.757-25.332 6.366-27.46 8.072-.664.532-2.785 1.383-4.713 1.889-4.217 1.107-13.75 8.078-16.802 12.286-1.21 1.669-2.911 3.034-3.781 3.034-.87 0-1.915 1.041-2.322 2.315-.769 2.401-5.423 10.075-8.242 13.591-1.458 1.818-4.059 9.529-5.566 16.506-2.244 10.385.983 27.74 6.594 35.464 3.04 4.185 3.987 4.35 7.204 1.248 3.059-2.949 5.94-4.765 18.575-11.715 15.346-8.442 28.927-15.075 30.867-15.075.947 0 1.723-.468 1.723-1.041s1.171-1.137 2.605-1.256c1.434-.118 2.96-.837 3.388-1.597.79-1.4 12.112-4.25 12.112-3.049 0 .36.784-.06 1.743-.933 1.397-1.271 2.175-1.024 3.923 1.249 1.198 1.558 5.865 6.996 10.37 12.084 4.506 5.089 10.496 12.342 13.31 16.119 10.253 13.757 22.068 27.665 24.08 28.345.504.17 2.317 1.316 4.029 2.545 1.712 1.23 4.013 2.347 5.116 2.484 1.102.136 2.922.678 4.043 1.204 3.65 1.71 25.92-4.52 40.525-11.339 2.83-1.32 5.274-2.349 5.432-2.286.157.062 4.09-1.994 8.737-4.569 4.647-2.574 11.708-6.254 15.691-8.175 3.983-1.921 8.6-4.34 10.26-5.377 1.66-1.037 8.178-4.721 14.484-8.186 6.307-3.465 11.647-6.746 11.868-7.292.221-.546.939-.992 1.594-.992.654 0 3.634-1.843 6.622-4.096 2.987-2.253 5.677-3.831 5.974-3.506 1.342 1.472-4.404 12.045-7.764 14.284-2.048 1.365-5.141 4.94-6.872 7.945-1.73 3.005-5.114 7.344-7.52 9.641-2.406 2.297-5.916 5.813-7.801 7.814-1.885 2-3.951 3.638-4.592 3.638-.641 0-1.165.866-1.165 1.922 0 1.057-3.217 5.893-7.148 10.747-3.931 4.854-9.77 13.067-12.976 18.252-3.205 5.186-6.099 9.727-6.43 10.09-.648.71-1.702 2.797-9.683 19.183-7.536 15.473-9.972 18.973-16.462 23.674-6.563 4.754-24.712 14.03-27.451 14.03-.982 0-2.127.606-2.544 1.344-.92 1.632-8.943 5.728-11.455 5.848-2.778.133-15.516 10.351-16.384 13.144-.424 1.36-2.487 4.338-4.586 6.615-7.961 8.64-11.353 14.7-13.42 23.994-1.133 5.087-3.308 11.334-4.834 13.88-3.582 1.997-11.74 16.652-13.725 17.967-11.27 12.508-16.736 18.725-21.416 24.05l-4.86 2.719c-8.824 4.934-15.067 17.476-10.947 21.991 2.934 3.216 1.064 7.106-6.252 13.005-3.728 3.007-7.32 6.108-7.984 6.892-3.908 4.613-7.159 11.109-7.29 14.568-.083 2.19-.569 5.61-1.082 7.599-.742 2.878-.293 4.448 2.21 7.708 1.728 2.251 3.144 4.602 3.144 5.222 0 .62.852 2.06 1.895 3.204 1.044 1.143 3.08 2.075 4.527 2.07 3.762-.015 16.129-7.779 18.41-9.853 1.06-.963 4.351-5.046 8.421-10.162 14.319-17.996 13.719-21.08 17.952-25.72 5.233-5.737 7.853-9.476 9.507-13.56 1.76-4.347 2.81-5.934 7.757-11.737 2.14-2.511 3.77-5.056 3.62-5.656-.149-.6.124-1.164.607-1.253.482-.09 2.152-1.49 3.71-3.111 4.921-5.117 7.513-7.081 13.615-10.32 7.127-3.784 25.573-17.038 30.074-21.61 1.772-1.8 4.399-3.457 5.838-3.682 1.603-.25 2.495-1.222 2.305-2.511-.17-1.157 4.302-7.408 9.94-13.891 5.636-6.483 10.255-12.25 10.266-12.814.023-1.186 5.522-3.792 9.119-4.323 2.274-.335 14.878-8.121 16.25-10.038 2.605-3.639 6.49-9.33 9.635-14.111 2.057-3.126 4.667-6.007 5.802-6.403 3.418-1.191 7.844-3.557 12.6-6.734 2.477-1.653 5.367-3.007 6.42-3.007 1.409 0 1.715-.789 1.153-2.977-.567-2.209-.456-2.486.432-1.075.999 1.59 2.052 1.264 6.414-1.984 2.871-2.138 5.402-4.333 5.623-4.879.221-.545 1.048-.992 1.836-.992 2.497 0 19.327-20.085 26.05-31.09 6.497-10.631 12.171-18.764 18.66-26.745 3.993-4.911 4.2-4.897 18.721 1.25 7.365 3.118 11.659 4.006 21.842 4.527 6.97.357 15.797.103 19.615-.566 8.47-1.484 8.739-.467 1.99 7.499-7.15 8.437-9.979 15.206-10.55 25.245-.404 7.089-1.231 9.858-4.612 15.46-4.343 7.195-14.992 17.979-18.28 18.508-2.906.467-11.235 4.604-15.132 7.516-4.289 3.205-8.058 12.595-7.966 19.847.021 1.698.056 2.748.155 3.189l-.127.65s.949 2.465 1.893 3.205c.8.627 2.864.785 2.864.785.066.553.562.993 1.181.993 3.19 0 .23 14.875-4.528 22.756-4.385 7.262-3.877 18.575.907 20.24 1.26.438 2.613 1.917 3.008 3.284.396 1.367 3.64 4.288 7.205 6.493 3.566 2.206 7.23 5.182 8.145 6.612.914 1.43 3.196 3.366 5.071 4.303 3.15 1.572 3.629 1.423 6.285-1.962 2.982-3.8 3.971-11.878 1.648-13.451-.675-.457-.825-1.534-.332-2.393.492-.86.73-2.656.53-3.99-.2-1.334.609-3.203 1.796-4.155 1.7-1.362 1.858-2.131.74-3.607-1.12-1.479-.92-2.343.95-4.098 1.304-1.223 2.372-2.944 2.372-3.824 0-1.245-.323-1.247-1.45-.013-2.137 2.342-3.16 1.947-3.614-1.39-.25-1.844 1.51-6.085 4.626-11.142 2.767-4.491 5.4-9.99 5.846-12.222.448-2.231 1.314-4.396 1.927-4.811.612-.415 1.115-1.775 1.115-3.02 0-1.246 1.27-3.742 2.824-5.546 2.18-2.53 2.541-3.784 1.58-5.49-1.02-1.81.388-4.059 7.734-12.346 4.94-5.574 12.244-12.705 16.227-15.848 7.15-5.64 27.793-28.264 35.19-38.564 5.56-7.74 13.695-21.808 13.695-23.682 0-.552.337-1.325.82-2.057 2.52-.81 8.936-8.794 9.638-13.537.614-4.146.135-5.23-4.586-10.395-2.898-3.171-8.46-7.738-12.36-10.147-3.9-2.408-8.362-5.772-9.918-7.477-1.556-1.706-4.07-3.527-5.585-4.047-1.515-.52-4.29-2.353-6.167-4.072-1.877-1.72-4.592-3.145-6.035-3.168-1.443-.023-3.657-.901-4.923-1.95-1.265-1.05-5.203-2.834-8.75-3.965-3.548-1.13-6.45-2.395-6.45-2.81 0-.416 1.69-2.489 3.757-4.605 3.391-3.473 3.682-4.19 3.044-10.05 1.544.137 4.125.11 7.871-.16 6.307-.454 17.585-2.401 17.917-2.945.332-.544 3.488-2.024 7.014-3.287 6.624-2.372 12.757-7.885 18.806-16.901 3.35-4.995 7.804-7.834 19.428-12.385 6.293-2.463 17.64-13.622 26.003-25.57a8300.93 8300.93 0 0 0 5.384-7.7c.67-.96 2.292-2.747 3.605-3.969 1.313-1.222 5.056-5.05 8.32-8.506 3.263-3.456 6.416-6.284 7.006-6.284 1.084 0 14.044-4.502 18.5-6.426 7.83-3.382 16.298-8.704 16.843-10.587.348-1.2 4.982-7.05 10.3-12.997 5.318-5.947 9.67-11.45 9.67-12.23 0-.779.727-1.418 1.616-1.418.889 0 4.08-2.976 7.091-6.615 3.011-3.638 5.907-6.614 6.436-6.614 2.194 0 5.377-4.617 5.377-7.801 0-1.882-1.864-7.592-4.142-12.692-2.278-5.1-4.436-11.953-4.795-15.227-1.22-11.132-4.086-21.025-8.322-28.713-4.13-7.495-9.35-17.582-12.525-24.206-2.141-4.466-2.04-7.081.238-6.123 1.5.63 1.603.292.561-1.843-.703-1.439-1.952-2.617-2.777-2.617-2.034 0-5.751-4.753-8.673-11.085-2.315-5.017-5.325-7.687-19.532-17.34-1.681-1.143-2.734-1.661-3.433-1.895l.359-.119c-1.489-.814-2.485-1.235-3.103-1.364zm-254.82 167.72c-.268-.219-.513-.215-.593.144.248-.007.443-.057.594-.145zM402.06 302.06c2.673 3.276 9.374 9.112 13.605 11.35 7.764 4.109 11.108 7.679 11.108 11.86 0 1.888-1.022 2.352-5.165 2.352-2.84 0-6.394.944-7.898 2.098-2.503 1.922-2.99 1.918-5.764-.075-1.666-1.197-3.345-3.073-3.73-4.17-.53-1.515-1.797-1.791-5.275-1.147-2.614.484-5.652.218-7.082-.62-2.224-1.305-2.504-1.1-2.504 1.837 0 1.94-.987 3.885-2.386 4.705-2.012 1.18-2.47.93-2.94-1.607-.305-1.653-.452-5.982-.325-9.62.257-7.35.848-7.655 8.129-4.201 2.465 1.169 4.963 1.577 5.877.958 1.109-.75.268-1.557-2.78-2.659-4.675-1.691-5.982-5.343-1.911-5.343 1.35 0 3.812.973 5.47 2.163 1.656 1.19 3.361 1.78 3.79 1.31.93-1.02-3.228-4.695-5.38-4.755-.731-.02-1.345-.978-1.48-2.22zm19.763 28.208c6.778 0 9.887 2.173 13.263 9.271 3.635 7.644 3.403 9.335-1.09 7.922-2.001-.629-5.617-.793-8.031-.364l-4.39.78.816-5.594c.604-4.142.447-5.345-.609-4.63-.99.671-1.218.097-.745-1.886.375-1.57.214-2.853-.358-2.853-1.378 0-2.82 8.672-1.886 11.34.404 1.156.406 3.542.002 5.303-1.181 5.159-3.717 3.285-3.074-2.271.054-.464-.432-2.845-1.077-5.292-.807-3.06-.746-5.586.193-8.088 1.213-3.234 1.99-3.638 6.985-3.638zm-22.958 6.028a92.292 92.292 0 0 1 2.094.003c6.202.066 7.105.402 7.105 2.641 0 2.262-.956 2.59-8.067 2.773-7.781.2-8.03.106-7.103-2.641.734-2.175 1.609-2.718 5.971-2.775zm30.049 15.24c1.06 0 2.337.056 3.892.16 8.742.585 7.939-.322 16.783 18.922 4.713 10.255 9.099 26.603 7.438 27.728-.449.304-2.959.01-5.578-.656s-7.068-1.226-9.89-1.243c-2.821-.017-5.13-.626-5.13-1.354 0-.728.77-1.323 1.71-1.323 2.148 0 2.783-2.024 2.14-6.827-.343-2.563-1.207-3.757-2.72-3.757-1.22 0-2.779-1.041-3.463-2.315-1.085-2.017-1.398-2.06-2.438-.33-.917 1.524-.574 2.15 1.48 2.702 2.9.78 4.244 4.721 2.327 6.822-1.738 1.905-6.368-1.118-5.502-3.592.789-2.252-.558-2.514-3.19-.62-1.135.817-1.36 1.672-.603 2.295 1.456 1.196 1.804 10.914.391 10.914-1.483 0-5.823 5.065-5.823 6.796 0 .826 1.37 0 3.046-1.838 4.164-4.563 7.638-5.09 21.844-3.31l12.217 1.53 1.516 4.695c.833 2.582 2.534 7.039 3.777 9.904 3.217 7.417 3.003 11.328-.618 11.328-2.1 0-6.143 3.835-14.994 14.222-6.665 7.822-14 16.925-16.3 20.23-3.297 4.739-6.69 7.37-16.085 12.472-6.548 3.556-12.37 6.73-12.94 7.056-.569.326-.642-.762-.163-2.418.718-2.477.509-2.859-1.176-2.15-1.127.474-3.498.88-5.269.904l-3.22.044 2.647 2.424 2.648 2.424-3.093 1.545c-2.638 1.317-2.991 1.245-2.386-.483 1.109-3.168.21-2.506-6.226 4.586-6.154 6.78-8.678 8.127-8.678 4.63 0-1.091.407-1.988.905-1.994.498-.007 3.35-4.183 6.337-9.28 2.987-5.095 7.469-12.215 9.958-15.823 5.666-8.211 5.797-10.55.604-10.785-2.158-.098-5.281-.284-6.94-.414-1.66-.129-5.463-.356-8.45-.503-8.68-.43-9.55-1.783-4.958-7.726 7.29-9.436 9.062-11.29 11.92-12.48 3.87-1.613 11.978-1.501 14.89.206 2.544 1.493 7.117.549 7.117-1.47 0-.67-1.222-1.141-2.716-1.047-1.494.095-4.287-.762-6.205-1.904l-3.487-2.077 4.435-.912c2.44-.502 5.911-.597 7.713-.212 1.847.394 5.12-.263 7.502-1.504 3.878-2.021 4.254-2.736 4.6-8.698.322-5.566-.051-6.89-2.617-9.255-2-1.844-3.438-5.131-4.326-9.9-1.472-7.897-.818-10.941.841-3.921.608 2.571 1.938 4.63 3.16 4.888 1.771.374 1.905.004.83-2.312a759.205 759.205 0 0 1-2.413-5.253c-.621-1.372-.853-3.902-.514-5.623.599-3.036.562-3.052-1.282-.56-2.355 3.182-2.361 2.677-.15-14.427 1.208-9.35 2.306-13.663 3.776-14.842 1.14-.912 2.57-1.32 3.18-.906.61.413 1.784-.26 2.607-1.494.907-1.359 2.132-1.886 5.312-1.889zm-11.33 21.568a.808.808 0 0 0-.467.16c-.664.45-1.207 1.71-1.207 2.801 0 1.092.543 1.618 1.207 1.168.664-.45 1.207-1.71 1.207-2.8 0-.82-.307-1.32-.74-1.329zm-93.468 4.881c1.372.066 1.229.447-.544 1.442-2.633 1.477-12.674 14.747-12.674 16.749 0 .68-.815 1.98-1.81 2.886-5.202 4.73 1.794-8.07 8.856-16.206 2.369-2.729 5.145-4.92 6.172-4.87zm91.325 1.687c-.433-.08-.738.213-.738.791 0 .77.543 1.4 1.207 1.4s1.207-.263 1.207-.583c0-.321-.543-.951-1.207-1.4a1.26 1.26 0 0 0-.47-.208zm-66.423 2.362c1.67.012 3.42.661 5.333 1.94l3.018 2.019-4.043-.734c-2.943-.535-4.869-.022-7.082 1.886-1.672 1.442-3.541 2.282-4.152 1.868-.61-.414-3.226 1.343-5.813 3.904-2.588 2.562-4.09 4.885-3.336 5.16.792.29.54.85-.6 1.329-1.516.638-1.853.174-1.468-2.016.51-2.905 5.601-8.912 7.554-8.912.596 0 2.549-1.488 4.34-3.307 2.081-2.114 4.102-3.153 6.25-3.137zm-8.413 9.545c.144.027.303.094.469.207.664.45 1.207 1.08 1.207 1.4 0 .321-.543.584-1.207.584s-1.207-.63-1.207-1.4c0-.578.305-.87.738-.791zm91.138 2.191c1.328 0 2.08.595 1.669 1.323-.41.728-1.834 1.323-3.161 1.323-1.328 0-2.077-.595-1.667-1.323.41-.728 1.831-1.323 3.159-1.323zm-110.75 12.452c.447.086.768.831.768 1.946 0 1.455-.543 3.012-1.207 3.462-.664.45-1.207-.374-1.207-1.83 0-1.455.543-3.012 1.207-3.462a.713.713 0 0 1 .24-.11.474.474 0 0 1 .199-.006zm12.808.385c-2.017-.114-3.648 1.038-6.76 4.53-4.214 4.73-4.405 5.285-2.882 8.402 2.075 4.25 3.081 4.196 5.693-.302 1.162-2 2.561-3.99 3.11-4.421.548-.43.832-1.43.631-2.222-.2-.792.67-2.287 1.938-3.323 2.21-1.806 2.175-1.909-.837-2.54a5.994 5.994 0 0 0-.893-.124zm25.982 1.716c1.006 0 1.81 1.176 1.81 2.646s-.804 2.645-1.81 2.645-1.81-1.175-1.81-2.645.804-2.646 1.81-2.646zm66.92 2.118c-.056-.018-.116-.008-.182.037-.525.355-.955 2.397-.955 4.537 0 5.291.834 4.914 1.427-.646.232-2.184.098-3.797-.29-3.928zm25.72.533c-.498.003-.924 2.744-.943 6.095-.03 5.167-.627 6.67-3.923 9.9-2.138 2.093-3.885 4.113-3.885 4.487 0 .374.498.68 1.108.68 4.994 0 8.548-6.3 8.548-15.15 0-3.31-.407-6.015-.905-6.012zm-102.657 5.405c-.582.064-1.538.754-2.865 2.07-2.522 2.502-2.944 7.849-.697 8.842 2.56 1.133 4.526.939 4.526-.447 0-.728-1.086-1.323-2.414-1.323s-2.414-.554-2.414-1.232c0-1.33 5.54-1.072 6.808.317 1.367 1.498 2.848-.475 2.848-3.793 0-3.78-2.04-4.2-4.458-.914-1.57 2.133-1.643 2.081-.955-.662.499-1.985.369-2.94-.38-2.858zm-150.68.285c6.242.036 11.615 3.664 15.852 10.736 1.992 3.324 5.115 6.788 6.94 7.697 3.135 1.561 4.477 3.654 2.344 3.654-.536 0-2.625 2.567-4.642 5.702-2.985 4.642-5.102 6.266-11.396 8.744-4.252 1.675-8.247 3.575-8.878 4.222-1.433 1.47-10.106 1.375-13.336-.147-1.328-.625-3.724-1.179-5.324-1.23-1.83-.058-5.084-2.542-8.786-6.708-3.233-3.638-6.337-6.614-6.898-6.614-.562 0-1.349-1.786-1.747-3.97-.64-3.508-1.217-3.968-4.979-3.968-3.787 0-4.253-.38-4.253-3.47 0-3.414.114-3.463 6.884-2.848 6.058.55 7.542.168 12.372-3.196 5.802-4.041 13.92-6.991 23.12-8.4.926-.142 1.836-.21 2.728-.204zm11.024.674 2.912.943c5.405 1.747 10.97 4.622 10.97 5.67 0 .571-.644 1.745-1.43 2.606-2.894 3.173.095 2.966 5.21-.361 12.7-8.26 14.983-8.939 28.071-8.344 9.36.426 13.696 1.274 18.606 3.643 3.52 1.7 5.965 3.508 5.431 4.018-.533.51-5.042 1.665-10.021 2.564-12.935 2.334-25.066 6.616-29.066 10.26-2.703 2.463-4.674 2.036-10.114-2.193-2.627-2.043-5.404-3.45-6.174-3.127-1.704.717-8.963-6.982-8.963-9.506 0-.994-1.222-2.79-2.716-3.99zm149.72 3.093c-.212.252-.667 3.139-1.011 6.413-.345 3.274-1.22 8.034-1.945 10.576-.725 2.542-1.316 5.667-1.316 6.946 0 4.307 2.298 2.365 3.121-2.639.45-2.728 1.137-5.556 1.53-6.284.394-.727.73-2.06.748-2.96.017-.902.576-1.498 1.24-1.324.664.174 1.031.91.818 1.638-.213.728.237.65 1.002-.173 1.048-1.127.75-2.874-1.205-7.074-1.428-3.068-2.77-5.372-2.982-5.12zm67.368.201c-.168.015-.298.455-.33 1.251-.067 1.615.817 2.315 2.923 2.315 1.66 0 3.017-.665 3.017-1.478 0-.814-1.059-1.173-2.357-.8-1.296.37-2.61-.006-2.921-.838-.117-.312-.232-.458-.332-.45zm-128.036 3.791c4.469.073 11.125 1.596 15.357 3.866 4.68 2.51 5.098 3.045 3.018 3.873-1.97.784-1.42 1.259 2.982 2.581 2.968.891 6.416 2.404 7.664 3.362 1.946 1.494 1.225 1.637-5.085 1.01-9.551-.95-20.223 1.494-31.513 7.212-13.66 6.918-19.814 10.612-20.29 12.178-.674 2.213 3.239 1.66 8.055-1.137 2.414-1.403 9.55-4.468 15.856-6.814 10.003-3.72 13.518-4.346 27.54-4.902 11.08-.439 16.499-.172 17.441.86 1.019 1.117.261 1.5-2.97 1.5-4.548 0-20.451 4.87-21.491 6.58-.332.547-4.289 3.012-8.791 5.476-4.503 2.464-9.255 5.067-10.562 5.785-1.306.719-2.374 1.76-2.374 2.315 0 .556-.717 1.01-1.593 1.01-.877 0-3.185 2.205-5.13 4.9-3.882 5.378-5.312 6.857-10.941 11.3-5.733 4.522-23.896 19.92-24.582 20.838-1.4 1.876-17.822 15.603-21.425 17.91-2.157 1.38-3.923 2.976-3.923 3.547 0 .57-.701 1.039-1.558 1.039-.857 0-5.61 4.148-10.562 9.217-4.952 5.069-9.398 9.236-9.88 9.26-.481.025-6.099 3.925-12.483 8.67-6.384 4.744-17.94 11.93-25.68 15.97-7.74 4.04-15.427 8.237-17.087 9.323-2.861 1.873-39.062 21.329-48.465 26.049-2.424 1.216-5.004 2.211-5.734 2.211-.73 0-1.325.496-1.325 1.101 0 .606-1.765 1.742-3.923 2.525-5.298 1.921-16.378 6.388-20.82 8.395-1.993.9-4.03 1.54-4.527 1.423-.498-.117-.906.27-.906.863 0 .594-3.537 2.45-7.86 4.122-4.322 1.672-8.156 3.567-8.52 4.212-.81 1.438-3.43 1.316-8.967-.422-7.352-2.306-10.864-3.981-10.864-5.18 0-.64-.679-1.167-1.508-1.173-1.778-.014-14.183-12.469-14.183-14.24 0-.668-1.16-2.35-2.577-3.737-1.417-1.386-5.431-6.389-8.918-11.118-10.911-14.799-32.24-37.683-39.804-42.707-17.799-11.821-18.917-12.196-36.35-12.196h-15.83l2.552-3.002c6.452-7.588 36.462-20.61 51.056-22.155 2.114-.224 5.087-.84 6.606-1.37 1.52-.528 5.52-1.115 8.89-1.304 11.922-.67 28.956-2.977 42.824-5.801 3.651-.744 11.256-2.287 16.899-3.431 5.643-1.145 12.975-2.317 16.295-2.602 3.319-.286 12.824-2.02 21.123-3.853 8.298-1.834 19.976-3.972 25.951-4.75 5.975-.777 13.308-2.305 16.295-3.397 2.987-1.092 14.665-4.715 25.951-8.052 11.286-3.336 21.555-6.39 22.82-6.787 1.546-.485 2.016-.22 1.437.808-.475.843-1.51 1.541-2.301 1.55-1.5.018-15.61 7.745-24.973 13.677-2.988 1.893-11 6.48-17.804 10.191-11.567 6.308-14.875 9.188-10.548 9.188 1.005 0 2.77-.571 3.923-1.27 1.795-1.09 11.287-5.775 17.186-8.486 3.531-1.623 21.204-12.336 26.555-16.098 2.988-2.1 5.913-3.665 6.502-3.475.59.19 2.219-.774 3.621-2.142 1.403-1.37 4.724-3.541 7.38-4.827 2.655-1.286 8.086-4.027 12.07-6.09 3.983-2.064 10.23-5.023 13.88-6.576 3.652-1.554 15.602-7.59 26.555-13.414 10.954-5.823 21.003-11.12 22.33-11.77 4.315-2.11 21.477-6.35 31.98-7.9 5.64-.833 10.918-2.116 11.728-2.853.695-.633 2.274-.9 4.305-.866zm.076 5.183c-5.81-.054-11.323.223-11.691.876-.308.546 5.772 1.058 13.508 1.137 7.952.081 13.018-.31 11.653-.899-1.553-.671-7.66-1.06-13.47-1.114zm-127.15 5.176c-3.321 0-.307 6.6 3.9 8.54 4.137 1.906 11.496 1.698 20.135-.574 7.458-1.961 10.006-4.84 2.997-3.387-17.082 3.541-25.824 2.857-25.824-2.021 0-1.406-.543-2.558-1.207-2.558zm55.239 2.741c.453-.017 1.86.732 3.392 1.832 1.752 1.258 2.72 2.74 2.15 3.29-1.921 1.86-11.292 5.354-11.292 4.211 0-.623 1.187-2.851 2.638-4.95 1.451-2.1 2.792-4.045 2.98-4.326.023-.035.067-.054.132-.057zm210.611 2.55c-.664 0-1.53 1.764-1.923 3.918-.915 5.013-8.35 14.049-14.292 17.371-2.534 1.418-4.606 2.905-4.606 3.303 0 .922 4.483-.585 8.654-2.91 4.494-2.504 11.7-12.507 12.613-17.508.448-2.457.265-4.173-.446-4.173zm-280.74 5.561c.275-.09.406 1.072.406 3.48 0 2.305-.554 4.19-1.23 4.19-.73 0-.907-1.48-.434-3.639.568-2.597.985-3.94 1.259-4.03zm4.338 2.582c.195.047.517.556 1.043 1.547.704 1.328 1.05 2.668.768 2.977-.855.938-2.125-1.067-2.086-3.294.015-.86.081-1.278.275-1.23zm4.956 2.899c.11.018.24.221.384.617.349.955.307 2.095-.094 2.535-.401.44-.687-.342-.634-1.736.036-.964.161-1.447.344-1.416zm3.253.865c.703 0 .943.596.533 1.323-.41.728-.987 1.323-1.28 1.323-.293 0-.53-.595-.53-1.323 0-.727.574-1.323 1.277-1.323zm166.654 2.662c-.981.047-2.892.65-5.625 1.901-2.302 1.055-4.185 1.538-4.185 1.075 0-1.88-7.666 7.317-10.519 12.62-3.692 6.864-3.381 14.901.828 21.38 2.378 3.66 3.29 4.111 7.612 3.759 6.161-.502 7.7-3.708 1.78-3.708-3.074 0-4.462-.757-5.458-2.977-2.118-4.722-3.185-9.373-2.808-12.237.582-4.409 8.415-13.744 15.015-17.893 4.044-2.543 4.994-4 3.36-3.92zm-174.86.63c.335.03.694.292 1.025.866.571.987 1.047 2.54 1.057 3.45.025 2.283-2.322 2.084-3.145-.267-.74-2.11.058-4.136 1.063-4.049zm13.92 1.323c.16.008.33.034.512.073 2.906.613 4.567 1.821 4.567 3.328 0 .684-1.515 1.245-3.364 1.245-2.5 0-3.362-.644-3.362-2.514 0-1.492.534-2.188 1.648-2.132zm8.7 4.778c.443 0 .884.31 1.448.927 1.126 1.235.805 1.587-1.448 1.587s-2.576-.352-1.45-1.587c.563-.617 1.007-.927 1.45-.927zm-7.35 2.68c.364-.039.723.07 1.01.384.41.45.164 1.454-.546 2.233-.867.95-1.542.973-2.051.07-.643-1.14.493-2.574 1.586-2.688zm-22.755 9.095c.703 0 .943.595.533 1.323-.41.727-.988 1.323-1.28 1.323-.293 0-.53-.596-.53-1.323 0-.728.574-1.323 1.277-1.323zm130.24 10.26 6.23 2.235c3.969 1.423 8.385 4.467 12.156 8.38 13.103 13.598 20.584 16.672 40.784 16.762 16.509.073 16.976.333 15.128 8.403-.96 4.192-11.183 15.255-16.637 18.004-3.592 1.811-14.729 4.58-27.024 6.716-2.76.48-6.019 1.748-7.242 2.821-2.034 1.785-1.863 1.875 2.002 1.04 7.53-1.63 7.864-1.508 7.58 2.772-.374 5.592-2.212 8.803-7.01 12.237-6.29 4.502-19.309 8.124-29.605 9.387-4.96.61-8.366 1.28-10.192 1.86-1.142-8.946-6.083-17.186-14.26-23.743-6.974-5.592-17.003-10.85-20.847-10.932-1.383-.03-2.858-.43-3.277-.889-.42-.46-2.69-.965-5.045-1.121-4.462-.297-7.103-1.968-4.64-2.936.783-.307 6.087-4.484 11.785-9.281 5.699-4.798 10.724-8.326 11.165-7.842.442.484-1.874 3.728-5.146 7.211-8.554 9.108-9.729 10.835-7.374 10.835 2.45 0 10.445-8.953 19.48-21.814 3.955-5.63 8.572-11.198 10.26-12.371 1.687-1.174 3.502-2.892 4.033-3.82.531-.926 1.722-1.684 2.648-1.684.925 0 2.393-1.042 3.26-2.315.868-1.274 3.873-4.024 6.681-6.114zm-13.405 22.96c-.82-.089-2.006 2.306-3.157 7.23-1.299 5.558-1.241 7.34.399 12.132 1.056 3.09 2.829 6.196 3.937 6.904 3.006 1.924 7.447 1.644 7.447-.47 0-1.013-1.358-2.215-3.018-2.672-1.909-.525-3.017-1.765-3.017-3.374 0-1.399-.482-2.868-1.07-3.266-.589-.399-.843-4.36-.564-8.804.315-5.016-.138-7.59-.957-7.68zm77.18 14.763c-.315-.071-1.05.536-1.905 1.628-3.49 4.457-8.87 7.605-17.12 10.02l-7.886 2.31 7.056.119c5.393.091 7.953-.558 10.863-2.755 4.349-3.283 9.15-9.062 9.154-11.017 0-.182-.058-.282-.163-.305zM211.074 531.41c-.458-.065-1.501.681-2.504 1.829-1.99 2.278-1.965 2.306.577.633 1.464-.963 2.402-2.037 2.084-2.385a.253.253 0 0 0-.157-.077zm-5.51 3.744c-1.464.103-7.79 2.125-15.314 4.93-8.599 3.205-16.896 5.826-18.44 5.826-1.545 0-7.033 1.513-12.198 3.362-5.165 1.849-11.668 3.874-14.452 4.501-2.783.627-11.848 3.303-20.147 5.946-20.128 6.409-35.51 10.121-41.534 10.025-2.716-.043-7.924.485-11.575 1.173-3.652.688-10.391 1.86-14.977 2.605-8.33 1.352-10.32 2.725-10.355 7.152-.016 2.094.944 2.287 8.735 1.752 4.813-.33 9.566-.938 10.561-1.351.996-.413 5.885-1.313 10.864-1.998 4.979-.684 10.682-1.633 12.674-2.108 4.376-1.045 39.6-12.536 68.966-22.5 5.402-1.834 12.735-4.168 16.295-5.187 3.56-1.018 8.103-2.786 10.095-3.927 1.991-1.141 4.309-2.079 5.15-2.083 2.27-.012 15.973-6.912 15.973-8.043 0-.067-.112-.09-.32-.075zm37.744 10.16 4.29 2.53c4.261 2.514 13.535 12.185 16.543 17.25.864 1.455 2.276 4.906 3.137 7.668l1.568 5.023-5.832 6.52c-3.208 3.585-6.148 6.534-6.535 6.552-1.376.067-2.313-1.77-2.313-4.532 0-4.347-11.564-20.233-16.898-23.216-4.763-2.663-7.199-5.292-4.902-5.292.703 0 1.28-.893 1.28-1.984 0-1.092.572-1.985 1.274-1.985.7 0 2.876-1.921 4.832-4.268zm-38.753 8.534h6.582l-6.549 7.028c-3.603 3.866-8.164 9.67-10.137 12.9-3.985 6.52-9.086 13.678-9.086 12.748 0-.33.796-2.694 1.77-5.25 1.675-4.393 1.639-4.687-.671-5.349-2.373-.68-2.381-.788-.264-3.617 1.2-1.604 3.269-4.208 4.597-5.786 5.925-7.044 6.975-8.705 5.507-8.705-.828 0-4.713 3.627-8.633 8.06-5.512 6.23-7.293 7.58-7.863 5.953-1.21-3.459.322-5.796 5.8-8.84 2.854-1.586 5.46-3.282 5.792-3.773 2.256-3.33 7.249-5.369 13.155-5.369zm66.422 1.326c-.662.03-1.12.368-1.12 1.067 0 1.678 2.833 5.169 4.829 5.95 4.525 1.773 14.545.052 15.364-2.638.32-1.052-1.638-1.29-6.585-.798-5.565.553-7.38.251-8.661-1.442-1.055-1.392-2.723-2.191-3.827-2.14zm-54.24.762c9.442-.081 25.976 13.11 31.392 25.953 3.1 7.352 2.837 10.274-1.064 11.852-2.844 1.151-2.865 1.093-2.07-5.475.489-4.033.341-6.636-.374-6.636-1.721 0-3.447 10.648-2.405 14.84.668 2.69.247 4.52-1.683 7.276-5.067 7.238-7.192 7.467-6.512.705.275-2.728.757-5.854 1.073-6.945 1.506-5.207 4.343-14.13 5.151-16.206.496-1.274.385-2.316-.245-2.316-1.516 0-4.746 7.138-6.587 14.553-1.876 7.555-1.875 7.555-2.041 14.01-.12 4.662-.764 5.898-4.652 8.93-2.481 1.935-3.876 3.52-3.098 3.52 3.334 0 8.058-3.003 13.488-8.57 3.197-3.277 6.17-5.567 6.605-5.09.436.478.806.026.82-1.005.04-2.794 4.74-9.065 4.775-6.369.046 3.641-2.569 10.482-3.711 9.708-.6-.406-1.09.706-1.09 2.47 0 1.764-1.22 4.924-2.713 7.023-7.11 10.004-8.454 10.755-7.416 4.147.514-3.275.37-3.826-.613-2.315-.71 1.091-1.301 4.156-1.311 6.811-.016 4.275-.564 5.141-4.8 7.56-5.577 3.187-5.965 2.796-7.211-7.268-.991-8.002 1.999-27.389 5.035-32.653.918-1.591 2.68-5.87 3.914-9.508 1.234-3.638 3.335-8.246 4.67-10.238 2.42-3.61 2.453-5.659.063-3.912-3.004 2.197-11.255 21.725-13.68 32.38-2.975 13.067-3.276 18.786-1.438 27.412 1.157 5.432 1.038 6.145-1.363 8.16-3.768 3.161-9.632 3.94-11.377 1.509-.784-1.092-1.763-5.65-2.176-10.127-.634-6.87-.193-10.007 2.831-20.097 4.481-14.948 8.809-25.373 14.968-36.064 6.511-11.301 5.022-11.813-1.82-.625-6.584 10.765-11.917 22.247-14.911 32.108-2.365 7.788-3.053 25.191-1.294 32.743l1.002 4.3h-6.102c-5.642 0-6.248-.317-8.095-4.233-4.152-8.8-.536-28.615 8.61-47.156 6.94-14.073 8.118-16.283 11.131-20.917 2.928-4.502 3.293-5.75 1.684-5.75-1.202 0-10.829 15.578-14.497 23.457-6.555 14.085-12.1 36.91-10.396 42.795.405 1.399.176 2.543-.51 2.543-2.58 0-4.157-6.34-4.71-18.925-.566-12.893-.536-13.076 3.876-22.604 6.117-13.208 21.812-32.858 28.193-35.296.805-.308 1.706-.457 2.683-.465zm-44.579 16.434c.703 0 .943.595.533 1.323-.41.727-.987 1.322-1.28 1.322-.293 0-.53-.595-.53-1.322 0-.728.574-1.323 1.277-1.323zM44.183 584.618c-.542-.056-1.04.244-1.664.812-1.75 1.591-1.754 1.95-.048 3.821 8.896 9.75 12.342 28.816 6.344 35.097-1.243 1.302-2.258 2.96-2.258 3.685 0 2.213 4.433-1.07 7.202-5.33 5.284-8.135 2.709-23.673-5.707-34.429-1.94-2.479-2.966-3.562-3.87-3.656zm128.842 7.597c1.183 0 5.107 9.283 5.08 12.02-.01 1.03-.477 2.662-1.037 3.63-.718 1.242-1.244.525-1.783-2.426-.559-3.063-1.737-4.588-4.394-5.687-3.774-1.561-4.87-3.568-1.95-3.568.925 0 1.995-.893 2.377-1.985.382-1.091 1.15-1.984 1.707-1.984zm-17.229.638c.61-.046 1.1.557 1.766 1.923.733 1.502.908 2.74.386 2.751-.52.011-.196.541.722 1.179 1.214.843.556 1.415-2.414 2.095-2.246.515-5.17 1.666-6.497 2.558-7.167 4.818-9.391 3.296-4.037-2.76 2.95-3.334 4.229-4.015 5.453-2.901 1.208 1.098 1.601.968 1.601-.53 0-1.091.776-2.689 1.726-3.553.518-.47.928-.734 1.294-.762zm9.05 2.008c.664 0 1.207.595 1.207 1.323 0 .727-.543 1.323-1.207 1.323-.663 0-1.207-.596-1.207-1.323 0-.728.544-1.323 1.207-1.323zm-17.457 12.788c1.118.042 2.243.791 4.4 2.397 6.346 4.727 10.933 20.742 10.172 35.514-.309 5.99-2.035 9.047-11.33 20.08-1.84 2.182-4.145 5.17-5.125 6.637-.981 1.468-3.412 3.795-5.404 5.17-1.991 1.376-4.057 3.3-4.587 4.277-.531.977-2.068 1.775-3.416 1.775-2.557 0-15.534 8.779-15.534 10.509 0 .545-1.086 2.366-2.414 4.044-4.202 5.31-2.517 7.397 2.136 2.646 2.588-2.643 6.313-3.584 6.313-1.595 0 .579-3.666 3.105-8.147 5.615-4.481 2.51-9.454 6.25-11.05 8.31-1.792 2.314-3.712 3.515-5.024 3.14-2.756-.79-10.28 7.902-15.392 17.78-2.12 4.098-4.668 8.19-5.66 9.092-1.512 1.375-1.808 1.134-1.841-1.499l-.043-3.14-2.494 3.288-2.494 3.286.377-3.948c.5-5.225-1.624-5.623-3.168-.594-1.16 3.776-6.88 8.493-8.348 6.883-.38-.415-.733.981-.785 3.104-.053 2.122-.37 3.113-.705 2.204-.943-2.56-2.82-1.951-2.82.914 0 2.864-2.365 5.201-2.499 2.47-.049-1.001-.43-.783-.905.52-.694 1.903-1.556 1.443-5.564-2.98-6.81-7.513-15.12-9.497-27.102-6.47-2.909.736-5.504 1.104-5.766.817-.745-.817 15.41-14.123 17.148-14.123.853 0 1.734-.463 1.955-1.029.221-.566 3.934-2.728 8.249-4.803 4.315-2.075 8.702-4.587 9.75-5.584 1.048-.997 2.447-1.814 3.107-1.814.661 0 3.876-2.084 7.144-4.63 3.268-2.547 6.524-4.63 7.237-4.63 1.73 0 13.191-12.11 13.216-13.964.02-1.47 5.99-9.85 7.016-9.85 2.342 0-5.188 19.508-9.83 25.467-2.781 3.57-.788 2.74 3.182-1.323 5.412-5.54 7.607-11.544 8.605-23.545.727-8.739 1.701-12.487 4.856-18.666 4.822-9.443 13.55-23.105 19.299-30.206 8.877-10.965 25.473-27.751 29.94-30.283 1.24-.703 2.085-1.133 2.864-1.24.163-.023.322-.03.481-.023zm77.375 16.627c-2.445.252-3.105 2.307-1.869 5.95.672 1.983 1.636 2.689 2.928 2.145 1.06-.445 1.641-1.625 1.292-2.622-.35-.998-.108-1.814.535-1.814 2.581 0 .969-3.41-1.728-3.654a6.045 6.045 0 0 0-1.158-.005zm-30.909 1.003c-.894-.011-1.288 1.438-.813 4.043.451 2.473.282 3.728-.438 3.24-.647-.437-.88.054-.517 1.091s1.85 2.514 3.305 3.284 2.808 1.442 3.004 1.491c.817.205-1.373-9.967-2.473-11.485-.815-1.126-1.531-1.658-2.068-1.664zm14.367 2.656c-.716 0-1.116 1.849-.905 4.18.259 2.865 1.077 4.293 2.6 4.533 1.223.192 2.537.692 2.919 1.11 1.542 1.692 2.652.61 1.596-1.555-.621-1.273-1.435-3.393-1.811-4.713-.376-1.32-1.232-2.029-1.9-1.576-.669.453-1.214.192-1.214-.579 0-.77-.58-1.4-1.285-1.4zm108.756 5.971c.165.023.336.071.511.145 1.022.43 1.858 1.314 1.858 1.964 0 .65 1.075 1.18 2.39 1.18 2.74 0 .217 9.546-2.154 12.605-1.029-.256-3.857 2-3.857 3.359 0 1.67-9.803 19.756-10.708 19.756-.463 0-1.834 1.84-3.046 4.088-1.582 2.935-2.574 3.685-3.512 2.656-.94-1.029-.623-2.461 1.12-5.08 4.07-6.118 6.474-16.576 4.168-18.139-1.308-.885-3.281 5.484-2.101 6.778.944 1.034-3.784 11.02-5.217 11.02-.627 0-1.665-1.072-2.306-2.385-.64-1.312-4.297-4.069-8.126-6.123-6.408-3.44-7.684-3.666-16.076-2.884-5.014.467-10.47 1.245-12.122 1.729l-3.006.878 3.47-4.522c1.91-2.486 5.163-5.32 7.23-6.297a225.077 225.077 0 0 0 7.498-3.752c2.056-1.087 7.617-2.081 12.36-2.209 4.743-.127 8.63-.332 8.636-.455.006-.122-.319-1.164-.722-2.315-.553-1.58-2.473-2.093-7.846-2.093-8.045 0-9.08-1.334-2.928-3.772 3.987-1.58 8.03-.67 10.3 2.318.332.436 2.64 1.826 5.13 3.087 4.413 2.237 4.527 2.228 4.527-.33 0-1.729.809-2.626 2.374-2.626 1.616 0 2.155.635 1.683 1.985-.382 1.091-.094 1.984.641 1.984a1.33 1.33 0 0 0 1.337-1.315c0-.733 1.865-1.053 4.215-.723 4.09.573 4.163.504 2.53-2.323-1.977-3.421-.725-8.534 1.749-8.189zm-48.701 12.682c4.71.107 5.237.332 2.789 1.191-4.33 1.52-6.99 1.52-7.846 0-.461-.818 1.467-1.272 5.057-1.191zm4.597 21.142c5.198-.061 10.039.48 12.853 1.77 5.876 2.69 9.123 6.935 7.478 9.777-.713 1.23-2.404 2.238-3.758 2.238-1.422 0-5.234 3.183-9.024 7.537-4.709 5.407-7.215 7.351-8.867 6.878-1.705-.488-3.475 1.067-6.827 5.99-4.771 7.007-5.524 9.361-2.987 9.361 1.965 0 20.084-15.493 28.188-24.105 3.61-3.837 6.521-6.002 6.978-5.191 1.202 2.13-11.733 16.566-25.842 28.841-6.971 6.065-13.021 11.031-13.445 11.034-.424.003-1.113-1.99-1.53-4.43-.61-3.56-1.819-5.03-6.137-7.464-3.083-1.738-5.058-3.655-4.63-4.496.41-.806.015-.72-.88.189-.893.91-3.01 1.635-4.702 1.612-2.935-.04-2.972-.131-.788-1.943 1.26-1.045 2.722-1.607 3.249-1.25.527.356.778-2.492.56-6.329-.223-3.949.377-9.27 1.38-12.265.975-2.911 2.062-6.632 2.417-8.269.354-1.637 1.218-2.977 1.918-2.977s2.13-.825 3.178-1.834c2.902-2.795 12.555-4.573 21.218-4.674zm-14.791 25.03c-.664 0-3.224.924-5.686 2.051-3.46 1.585-4.864 1.697-6.182.5-1.333-1.213-1.704-1.141-1.704.33 0 1.035.65 2.597 1.447 3.47 1.778 1.949 1.439 1.958 6.135-.194 3.956-1.812 8.183-6.157 5.99-6.157zM92.39 708.1c-.615.15-1.674 1.333-2.69 3.09-1.326 2.297-4.243 6.245-6.483 8.773-2.24 2.528-4.071 4.912-4.071 5.3 0 .387 1.95-.926 4.335-2.92 5.02-4.196 10.364-12.255 9.336-14.077a.337.337 0 0 0-.191-.166.432.432 0 0 0-.236 0zm148.433.832c5.639.361 11.394 5.93 12.57 12.757.687 3.99.127 5.264-5.385 12.238-6.132 7.758-8.326 9.348-8.326 6.036 0-3.742-6.717-9.978-12.453-11.56-3.163-.874-5.593-2.051-5.4-2.618 1.147-3.376 13.766-16.056 16.596-16.677a8.611 8.611 0 0 1 2.398-.176zm-25.93 19.915c1.28-.028 2.533.699 4.83 2.413 2.338 1.745 4.253 3.62 4.258 4.165.005.546.609.992 1.344.992.734 0 1.031-.875.657-1.943-.98-2.802 1.141-3.724 4.32-1.878 7.892 4.584 9.871 13.46 5.238 23.482-1.707 3.69-3.1 7.532-3.1 8.535 0 1.003-1.087 2.9-2.415 4.217-1.327 1.317-2.414 3.194-2.414 4.173 0 .979-.814 1.78-1.81 1.78-.996 0-1.81-.833-1.81-1.85 0-1.017-1.353-4.44-3.004-7.607-3.591-6.885-3.772-5.663-.618 4.165 1.508 4.7 2.349 10.88 2.374 17.452.022 5.596-.45 10.506-1.049 10.912-1.051.712-4.695-5.06-6.63-10.504-.516-1.455-.886-7.355-.822-13.11.087-7.746-.37-11.052-1.759-12.734-2.047-2.48-3.685-22.444-1.84-22.444.57 0 1.434 3.721 1.918 8.269.764 7.171 1.034 7.83 2.03 4.96 1.774-5.11.39-14.285-2.697-17.887l-2.718-3.17 3.15-1.574c1.02-.51 1.798-.798 2.567-.814zm-9.701 4.896c.519-.02.645.365.153 1.238-.375.665-.124 1.414.559 1.664 1.73.632 3.433 13.61 2.456 18.71-.757 3.953-1.12 4.208-5.865 4.1-1.36-.03-2.59.064-3.501.236l-2.506-.856-1.719-1.32-.86-1.506-.406-1.225c.324-1.141.768-2.955 1.424-5.713 1.528-6.426 3.155-10.093 5.43-12.238 2.012-1.897 3.97-3.056 4.835-3.09zm-177.88 17.865c4.216.052 8.444 1.026 12.268 3.026 7.278 3.807 8.909 6.865 5.908 11.077-1.222 1.715-2.587 4.395-3.032 5.953-.445 1.56-1.877 3.14-3.182 3.515-1.306.374-2.374 1.628-2.374 2.788 0 1.48-1.127 2.108-3.782 2.108-2.688 0-4.867 1.242-7.544 4.3-2.07 2.364-5.703 5.043-8.074 5.953-5.91 2.267-6.51 2.142-8.412-1.754-1.228-2.516-2.39-3.257-4.43-2.83-3.294.69-3.63-1.67-.888-6.255 1.247-2.087 1.45-3.427.603-4-.7-.474-1.27-1.969-1.27-3.32 0-1.352-.506-2.655-1.123-2.897-.616-.243.339-2.823 2.122-5.734 4.716-7.695 13.934-12.044 23.21-11.93zM57.175 764.2c.153 0 .171.44.142 1.323-.037 1.091-.533 3.175-1.104 4.63-1.037 2.646-1.04 2.646-1.105 0-.037-1.455.462-3.539 1.105-4.63.52-.882.809-1.323.962-1.323zm152.35 8.131c.757.094 1.189 1.606 1.189 4.522 0 2.594 1 7.505 2.223 10.914 3.994 11.137 6.226 19.708 6.226 23.907 0 3.395-.479 4.12-2.716 4.113-3.867-.01-20.393-14.368-21.757-18.901-.994-3.304-.539-4.363 4.31-10.044 2.98-3.493 6.306-8.23 7.39-10.527 1.3-2.753 2.38-4.078 3.136-3.984zM42.85 786.73c.618-.05 1.352.317 1.813 1.134.363.645-1.139 3.324-3.336 5.953-5.071 6.068-6.927 6.228-2.759.238 1.739-2.498 3.162-5.177 3.162-5.953 0-.854.501-1.322 1.12-1.372zm-55.743 30.924c.194.034.306.188.306.465 0 .728-.815 2.063-1.81 2.969-1.01.918-1.811 1.06-1.811.323 0-.728.815-2.063 1.81-2.97.632-.573 1.181-.845 1.505-.787zm-12.809 3.62c.156-.008.302.003.437.033 1.479.336.807 1.666-2.782 5.499-3.788 4.045-4.883 4.64-5.465 2.977-.4-1.144-1.693-2.099-2.876-2.122-1.729-.033-1.473-.694 1.308-3.374 3.608-3.477 5.854-3.423 3.204.077-2.343 3.094-.003 2.394 2.478-.741 1.05-1.328 2.605-2.292 3.696-2.35zm3.954 2.253c.513.02.904.485 1.414 1.284.818 1.28 1.857 5.035 2.31 8.349.71 5.178.426 6.518-2 9.53l-2.823 3.503-4.113-6.661-4.112-6.662 4.625-5.193c2.65-2.975 3.844-4.182 4.699-4.15zm14.63.16c.35.046.55.377.522 1.039-.024.546-1.378 2.778-3.011 4.961-3.305 4.42-4.079 2.403-1.033-2.692 1.277-2.136 2.755-3.41 3.523-3.308zm-40.03 11.057c1.715-.077 3.27.452 4.465 1.638 3.124 3.098 3.032 3.896-1.556 13.47-3.811 7.954-5.766 10.178-5.766 6.56 0-.945-2.16-3.177-4.797-4.96-5.743-3.884-6.008-6.166-1.342-11.517 2.835-3.252 6.139-5.063 8.996-5.191zm10.958 1.439c.525.061 1.584 1.22 3.718 3.736 3.639 4.29 4.194 5.827 4.194 11.643 0 8.169-1.776 12.084-8.956 19.744-3.041 3.244-5.529 6.603-5.529 7.465 0 .862-.888 1.94-1.97 2.395-1.718.722-1.869-.005-1.18-5.703.704-5.815 3.475-15.08 8.742-29.239l1.724-4.63-.529 7.276c-.29 4.002-.906 8.318-1.372 9.591-1.22 3.339 1.23 2.851 3.322-.661 3.812-6.4 3.143-19.41-.91-17.705-1.26.53-1.784-.12-1.76-2.18.012-1.163.098-1.78.506-1.732zm-21.533 23.808c.325-.03.632-.003.905.093 1.092.381 2.815.979 3.83 1.328 1.602.55 1.527 1.328-.57 5.832-1.33 2.858-2.78 7.781-3.222 10.94-1.024 7.317-2.763 10.833-9.282 18.76-4.01 4.876-6.317 6.552-9.691 7.05-4.796.71-4.932.54-6.191-7.774-.571-3.77-.04-6.375 2.291-11.245 3.39-7.084 5.95-10.969 7.228-10.969 1.693 0 9.143-6.966 9.143-8.55 0-2.252 3.278-5.259 5.559-5.465z" style="fill:#000" transform="translate(115.689 -298.708)"/></svg>